<svg width="16" height="16" viewBox="0 0 16 16" fill="none" xmlns="http://www.w3.org/2000/svg">
<path fill-rule="evenodd" clip-rule="evenodd" d="M6.75 3C6.75 2.30964 7.30964 1.75 8 1.75C8.69036 1.75 9.25 2.30964 9.25 3V3.25H6.75V3ZM5.25 3.25V3C5.25 1.48122 6.48122 0.25 8 0.25C9.51878 0.25 10.75 1.48122 10.75 3V3.25H15C15.4142 3.25 15.75 3.58579 15.75 4C15.75 4.41421 15.4142 4.75 15 4.75H14.1849L13.4123 13.249C13.2835 14.6654 12.0959 15.75 10.6736 15.75H5.32643C3.90412 15.75 2.71649 14.6654 2.58772 13.249L1.81509 4.75H1C0.585786 4.75 0.25 4.41421 0.25 4C0.25 3.58579 0.585786 3.25 1 3.25H5.25ZM4.08156 13.1132L3.32127 4.75H12.6787L11.9184 13.1132C11.8599 13.757 11.3201 14.25 10.6736 14.25H5.32643C4.67993 14.25 4.14009 13.757 4.08156 13.1132ZM6 6.5C6 6.22386 5.77614 6 5.5 6C5.22386 6 5 6.22386 5 6.5V12.5C5 12.7761 5.22386 13 5.5 13C5.77614 13 6 12.7761 6 12.5V6.5ZM8 6C8.27614 6 8.5 6.22386 8.5 6.5V12.5C8.5 12.7761 8.27614 13 8 13C7.72386 13 7.5 12.7761 7.5 12.5V6.5C7.5 6.22386 7.72386 6 8 6ZM11 6.5C11 6.22386 10.7761 6 10.5 6C10.2239 6 10 6.22386 10 6.5V12.5C10 12.7761 10.2239 13 10.5 13C10.7761 13 11 12.7761 11 12.5V6.5Z" fill="black"/>
</svg>
